PathFileType	4	(X/Y/Z)	C:\Users\dbl\Desktop\20210112\20210112\bx_n_5_1801.trc
DataRate	CameraRate	NumFrames	NumMarkers	Units	OrigDataRate	OrigDataStartFrame	OrigNumFrames
50.00	50.00	       5	43	mm	50.00	58	       460
Frame#	Time	Top.Head			R.Acromium			L.Acromium			Sternum			R.ASIS			L.ASIS			V.Sacral			R.Thigh.Upper			R.Thigh.Front			R.Thigh.Rear			R.Knee.Lat			R.Knee.Med			R.Shank.Upper			R.Shank.Front			R.Shank.Rear			R.Ankle.Lat			R.Midfoot.Lat			R.Toe.Lat			R.Toe.Tip			R.Toe.Med			R.Ankle.Med			R.Midfoot.Sup			R.Heel			L.Thigh.Upper			L.Thigh.Front			L.Thigh.Rear			L.Knee.Lat			L.Knee.Med			L.Shank.Upper			L.Shank.Front			L.Shank.Rear			L.Ankle.Lat			L.Midfoot.Lat			L.Toe.Lat			L.Toe.Tip			L.Toe.Med			L.Ankle.Med			L.Midfoot.Sup			L.Heel			origin1 front left			origin2 front right			origin 3 back right			origin 4 back leftt			
		X1	Y1	Z1	X2	Y2	Z2	X3	Y3	Z3	X4	Y4	Z4	X5	Y5	Z5	X6	Y6	Z6	X7	Y7	Z7	X8	Y8	Z8	X9	Y9	Z9	X10	Y10	Z10	X11	Y11	Z11	X12	Y12	Z12	X13	Y13	Z13	X14	Y14	Z14	X15	Y15	Z15	X16	Y16	Z16	X17	Y17	Z17	X18	Y18	Z18	X19	Y19	Z19	X20	Y20	Z20	X21	Y21	Z21	X22	Y22	Z22	X23	Y23	Z23	X24	Y24	Z24	X25	Y25	Z25	X26	Y26	Z26	X27	Y27	Z27	X28	Y28	Z28	X29	Y29	Z29	X30	Y30	Z30	X31	Y31	Z31	X32	Y32	Z32	X33	Y33	Z33	X34	Y34	Z34	X35	Y35	Z35	X36	Y36	Z36	X37	Y37	Z37	X38	Y38	Z38	X39	Y39	Z39	X40	Y40	Z40	X41	Y41	Z41	X42	Y42	Z42	X43	Y43	Z43	

58	1.140	-274.52008	127.75628	1225.54980	-480.19885	-54.36115	1012.75568	-480.74884	285.58041	986.22931	-589.24652	94.78022	808.22394	-841.16705	0.73365	769.36121	-803.37390	239.38446	742.92102	-1016.18909	115.49553	790.06921	-827.25659	-80.23647	682.18042	-721.57709	-14.94955	722.62097	-727.10571	-80.03669	626.17773	-599.65918	-61.65832	558.19086	-556.88251	49.35170	545.84497	-584.60077	-62.34769	523.66339	-535.15082	-12.25625	473.68933	-649.17688	-60.68360	462.79636	-747.90613	-16.65575	208.45772	-649.47559	-69.09108	160.59592	-608.34363	-76.94143	156.75568	-550.09637	-32.73252	165.96385	-597.32794	24.17787	169.11304	-703.61743	70.58076	211.42885	-672.03064	52.84309	157.67548	-788.06281	44.49521	179.17366	-824.17419	303.58926	649.35675	-695.17102	245.03491	708.68835	-695.08649	304.88943	603.96582	-603.06970	285.94379	550.66632	-527.33734	178.43970	540.28210	-568.91284	286.63177	519.06189	-516.30841	240.48315	479.16400	-626.40155	284.94769	464.09171	-755.79352	226.96431	206.88667	-660.97638	297.75427	157.91261	-624.87012	306.47198	158.18364	-554.04437	256.31729	162.87407	-590.06335	218.43813	173.50200	-697.36658	153.81638	208.97502	-672.78729	171.97530	154.17114	-789.28101	172.40787	190.03337	-528.44220	304.56384	146.54935	-517.94678	-72.57461	142.92612	-875.80591	-78.61070	141.04597	-882.74670	296.19153	144.79872	
59	1.160	-273.70105	127.95683	1216.53699	-478.93271	-53.82291	1003.94879	-479.54227	285.75601	977.31213	-589.75592	94.62251	798.63348	-842.99048	1.17402	765.01453	-803.36432	240.41541	737.31873	-1017.07629	116.84215	783.68103	-827.57196	-79.16075	678.34912	-722.71545	-12.93571	719.76874	-726.69470	-78.68668	623.76373	-598.39435	-60.05476	557.40247	-556.10852	51.11584	545.22314	-583.03638	-60.50619	523.01349	-533.78040	-10.48047	473.38596	-647.86267	-59.47556	462.45737	-747.64746	-16.30950	208.64365	-649.33972	-68.75467	160.96736	-608.34442	-76.69685	157.35458	-549.93762	-32.54432	165.92441	-597.18939	24.48672	168.74910	-703.59485	71.24599	211.14902	-671.94147	52.97800	157.12648	-788.00659	44.79530	179.22786	-823.93665	304.42795	644.84460	-695.96222	245.15755	705.73303	-694.30115	305.30334	601.24536	-601.59973	286.08786	549.10150	-526.26135	178.31389	539.53619	-567.35651	286.70200	518.03613	-514.92981	240.11177	478.55237	-625.02161	285.23251	463.60254	-755.70135	226.91179	206.86836	-660.94421	297.68326	157.98471	-624.85461	306.38824	158.19240	-554.00629	256.33658	162.85100	-589.97662	218.33208	173.45091	-697.24670	153.68544	208.75299	-672.81921	171.81430	154.02988	-789.19427	172.33276	190.05608	-528.43268	304.58371	146.57661	-517.94849	-72.59121	142.97270	-875.79736	-78.62498	141.05423	-882.73816	296.19150	144.79036	
60	1.180	-273.00290	128.14630	1208.10938	-477.77069	-53.30670	995.67023	-478.52667	285.95203	968.99951	-590.21881	94.48140	789.45074	-844.72205	1.58427	760.85687	-803.39331	241.38670	732.15710	-1017.95215	118.11699	777.69275	-827.97229	-78.12740	674.74854	-723.89813	-11.05336	717.08783	-726.41748	-77.40103	621.51190	-597.30768	-58.59008	556.70789	-555.44598	52.74801	544.68146	-581.62854	-58.74165	522.41608	-532.57019	-8.84099	473.11029	-646.70129	-58.40338	462.24799	-747.39966	-16.01863	208.85390	-649.22791	-68.45583	161.34897	-608.33691	-76.46442	158.00000	-549.80219	-32.34786	165.88710	-597.04858	24.75900	168.43468	-703.59821	71.81248	210.85941	-671.83179	53.14682	156.66672	-787.95209	45.09135	179.24702	-823.71204	305.30334	640.67950	-696.70001	245.32741	702.94611	-693.62720	305.75647	598.66815	-600.29956	286.30875	547.64905	-525.31409	178.26410	538.87048	-565.93610	286.76709	517.04303	-513.69171	239.85181	478.00601	-623.74072	285.64267	463.17303	-755.68158	226.75104	206.78200	-660.92261	297.60599	158.02260	-624.84064	306.33994	158.18983	-553.95941	256.35764	162.82855	-589.89679	218.26515	173.41983	-697.12500	153.53842	208.55731	-672.85175	171.66165	153.91963	-789.09003	172.27560	190.07852	-528.40668	304.58472	146.59834	-517.95270	-72.60242	143.00470	-875.79974	-78.63219	141.06866	-882.71643	296.18774	144.77618	
61	1.200	-272.40506	128.34016	1200.24219	-476.74557	-52.81503	987.93408	-477.70853	286.16147	961.30176	-590.63611	94.35664	780.67596	-846.36237	1.96468	756.88806	-803.49420	242.26550	727.42694	-1018.81268	119.32650	772.10278	-828.44727	-77.13432	671.37231	-725.10779	-9.33719	714.58362	-726.26587	-76.21593	619.42053	-596.38623	-57.34408	556.12671	-554.87140	54.19350	544.22821	-580.39624	-57.19653	521.89948	-531.51556	-7.39947	472.86444	-645.69208	-57.49162	462.14529	-747.16241	-15.75528	209.06067	-649.13409	-68.19971	161.73251	-608.32318	-76.22324	158.64729	-549.69019	-32.14701	165.84608	-596.91113	24.99217	168.17665	-703.59290	72.23939	210.57019	-671.72571	53.33946	156.32574	-787.88611	45.38437	179.22131	-823.49524	306.20050	636.84088	-697.38226	245.53587	700.33167	-693.04993	306.23654	596.23718	-599.14996	286.62500	546.31531	-524.47729	178.26878	538.29602	-564.64673	286.83960	516.08136	-512.62067	239.75195	477.45328	-622.56104	286.11795	462.74539	-755.70160	226.50752	206.65080	-660.90955	297.52057	158.04607	-624.82458	306.31561	158.18079	-553.90411	256.37643	162.80122	-589.83362	218.23529	173.40024	-696.98865	153.38402	208.38873	-672.87213	171.52115	153.83510	-788.98511	172.22513	190.10959	-528.37061	304.57132	146.61343	-517.96063	-72.60044	143.01418	-875.80450	-78.63245	141.08504	-882.68933	296.18073	144.76004	
62	1.220	-271.89111	128.54677	1192.91943	-475.87433	-52.34996	980.74316	-477.07022	286.38654	954.22797	-591.00916	94.24753	772.30902	-847.91211	2.31550	753.10797	-803.69507	243.03261	723.11328	-1019.64819	120.48590	766.91260	-828.98328	-76.18401	668.21930	-726.32971	-7.80988	712.25836	-726.22961	-75.16148	617.48761	-595.62164	-56.35989	555.65668	-554.37830	55.41425	543.86737	-579.35889	-55.96811	521.48572	-530.60919	-6.20291	472.65912	-644.83435	-56.74429	462.09900	-746.94043	-15.48965	209.23317	-649.05505	-67.97798	162.10492	-608.31506	-75.95152	159.26097	-549.59991	-31.95531	165.80363	-596.78931	25.18269	167.97737	-703.54858	72.51777	210.30225	-671.64648	53.54409	156.10072	-787.80396	45.67566	179.15099	-823.29218	307.09549	633.31494	-698.02405	245.76491	697.90503	-692.54871	306.72241	593.97583	-598.13544	287.01685	545.11304	-523.74866	178.28598	537.81854	-563.48962	286.91833	515.16132	-511.75464	239.81642	476.83521	-621.49341	286.56866	462.27707	-755.71667	226.22153	206.49817	-660.90082	297.42960	158.07501	-624.80511	306.29898	158.17004	-553.84363	256.39087	162.76768	-589.79279	218.23123	173.38385	-696.84058	153.22438	208.24567	-672.87219	171.39500	153.76843	-788.90051	172.17131	190.14581	-528.33307	304.55032	146.62172	-517.97412	-72.58241	143.00317	-875.80499	-78.62743	141.09885	-882.66260	296.17120	144.74268	
